<?xml version="1.0" standalone="no"?>
<!DOCTYPE svg PUBLIC "-//W3C//DTD SVG 20010904//EN"
 "http://www.w3.org/TR/2001/REC-SVG-20010904/DTD/svg10.dtd">
<svg version="1.0" xmlns="http://www.w3.org/2000/svg"
 width="1500.000000pt" height="1500.000000pt" viewBox="0 0 1500.000000 1500.000000"
 preserveAspectRatio="xMidYMid meet">
<metadata>
Created by potrace 1.11, written by Peter Selinger 2001-2013
</metadata>
<g transform="translate(0.000000,1500.000000) scale(0.100000,-0.100000)"
fill="#000000" stroke="none">
<path d="M915 14980 c-288 -61 -539 -225 -709 -463 -64 -90 -141 -256 -174
-374 l-27 -98 0 -6545 0 -6545 28 -100 c122 -443 484 -772 930 -845 86 -14
12988 -14 13074 0 487 79 874 466 953 953 14 86 14 12988 0 13074 -36 223
-144 439 -303 609 -133 142 -342 266 -543 322 l-99 27 -6520 2 c-6363 2 -6522
1 -6610 -17z m11425 -3470 l0 -910 -4845 0 -4845 0 0 910 0 910 4845 0 4845 0
0 -910z m-3896 -3757 c3 -357 9 -1114 12 -1683 l7 -1035 498 3 c275 2 499 1
499 -2 0 -5 -1952 -2789 -1970 -2809 -6 -7 -2020 2772 -2020 2787 0 3 226 6
501 6 l502 0 -7 853 c-3 468 -9 1227 -12 1684 l-7 833 254 3 c140 1 588 3 995
5 l741 2 7 -647z"/>
</g>
</svg>
