<?xml version="1.0" standalone="no"?>
<!DOCTYPE svg PUBLIC "-//W3C//DTD SVG 20010904//EN"
 "http://www.w3.org/TR/2001/REC-SVG-20010904/DTD/svg10.dtd">
<svg version="1.0" xmlns="http://www.w3.org/2000/svg"
 width="1500.000000pt" height="1500.000000pt" viewBox="0 0 1500.000000 1500.000000"
 preserveAspectRatio="xMidYMid meet">
<metadata>
Created by potrace 1.11, written by Peter Selinger 2001-2013
</metadata>
<g transform="translate(0.000000,1500.000000) scale(0.100000,-0.100000)"
fill="#000000" stroke="none">
<path d="M690 14980 c-167 -35 -311 -112 -433 -232 -68 -67 -145 -177 -178
-256 -11 -26 -24 -56 -29 -67 -5 -11 -17 -49 -27 -85 -17 -62 -18 -368 -18
-6825 0 -3718 4 -6780 8 -6805 50 -285 264 -544 536 -649 84 -32 101 -37 201
-52 73 -10 13511 -8 13545 3 31 9 108 31 122 34 7 1 50 20 95 42 247 120 425
353 473 622 12 63 14 1166 12 6825 l-2 6750 -23 75 c-48 155 -150 324 -253
415 -107 95 -252 169 -402 205 -81 19 -193 19 -6812 19 -6460 0 -6733 -1
-6815 -19z m1467 -544 c-3 -8 -11 -34 -17 -58 -37 -142 -147 -454 -207 -588
-84 -187 -275 -720 -304 -848 -13 -60 -18 -64 -89 -93 -57 -23 -60 -25 -54
-52 19 -89 2 -171 -55 -265 -53 -85 -76 -157 -85 -262 -2 -19 -8 -47 -14 -62
-21 -50 -78 -281 -74 -300 6 -28 -61 -185 -101 -235 -32 -40 -146 -148 -200
-188 l-60 -46 -1 -107 -2 -107 -83 -135 c-161 -262 -169 -284 -217 -590 -3
-19 -14 -73 -24 -120 -18 -83 -19 -50 -19 1865 0 1909 1 1951 20 2001 35 93
115 165 209 190 33 9 219 13 714 13 577 1 667 -1 663 -13z m9301 -88 c-115
-193 -262 -433 -330 -541 -37 -59 -68 -109 -68 -111 0 -7 -83 -141 -109 -176
-43 -58 -143 -183 -181 -223 -22 -24 -47 -71 -67 -124 -34 -92 -53 -122 -53
-86 0 42 -19 33 -44 -21 -14 -30 -26 -57 -26 -60 0 -3 -28 -47 -63 -98 -110
-163 -140 -213 -270 -453 -76 -141 -108 -191 -159 -246 -75 -80 -133 -109
-221 -110 -53 -1 -35 14 -234 -195 -26 -28 -109 -115 -183 -193 -74 -78 -152
-170 -173 -204 -42 -66 -148 -216 -182 -256 -113 -135 -195 -223 -472 -507
-73 -75 -109 -123 -179 -241 -48 -82 -91 -149 -96 -151 -4 -2 -8 -8 -8 -14 0
-5 -12 -26 -27 -46 -65 -89 -108 -147 -113 -152 -3 -3 -25 -30 -50 -60 -25
-30 -57 -68 -72 -85 -14 -16 -36 -41 -48 -55 -202 -237 -323 -341 -403 -345
-58 -3 -109 -14 -127 -28 -41 -32 -223 -311 -315 -482 -110 -204 -245 -334
-410 -395 -63 -24 -71 -30 -153 -130 -112 -137 -154 -176 -227 -211 -57 -27
-101 -38 -92 -21 3 4 8 67 12 140 3 74 8 143 10 155 2 12 6 58 9 103 4 44 8
96 10 115 5 39 17 157 21 209 2 19 6 62 10 95 3 33 8 80 11 105 5 53 13 123
19 165 2 17 7 50 10 75 8 73 15 133 20 173 3 20 7 56 10 80 6 43 23 172 30
217 2 14 6 45 10 70 3 25 8 56 10 70 6 33 17 109 20 140 1 14 5 43 9 65 3 22
8 63 11 91 3 28 8 61 10 75 3 13 7 51 10 84 3 33 8 76 10 95 9 73 24 208 31
280 3 41 7 82 9 90 1 8 6 60 10 115 4 55 9 116 11 135 1 19 6 76 9 125 3 50 8
110 10 135 14 155 20 375 20 735 -1 399 -8 599 -29 765 -3 19 -8 62 -11 95 -3
33 -8 71 -10 85 -1 14 -6 50 -9 80 -13 105 -47 304 -67 394 -11 50 -22 98 -24
107 -28 129 -128 395 -204 547 -28 56 -51 104 -51 107 0 3 1183 5 2630 5
l2629 0 -61 -102z m162 -5450 c-5 -13 -82 -201 -170 -418 -89 -217 -180 -442
-204 -500 -24 -58 -67 -163 -95 -235 -29 -71 -57 -139 -61 -150 -5 -11 -21
-49 -36 -85 -14 -36 -32 -78 -39 -95 -7 -16 -22 -52 -33 -80 -11 -27 -41 -95
-67 -150 -73 -156 -232 -544 -295 -720 -10 -27 -32 -88 -50 -135 -17 -47 -49
-137 -71 -200 -22 -63 -42 -122 -46 -130 -3 -8 -7 -17 -8 -20 -21 -81 -66
-205 -172 -474 -119 -302 -285 -776 -367 -1046 -52 -175 -236 -758 -246 -783
-18 -45 -153 -472 -152 -482 8 -71 8 -184 0 -222 -11 -53 -60 -160 -137 -298
-53 -95 -100 -207 -126 -303 -9 -31 -18 -64 -20 -72 -22 -77 -27 -136 -29
-365 l-2 -260 -43 -125 c-24 -69 -45 -127 -47 -129 -2 -2 -10 1 -17 7 -17 14
-36 -49 -53 -173 -12 -86 -11 -163 2 -200 15 -45 18 -254 4 -320 -5 -27 -12
-79 -14 -115 l-3 -65 -4119 0 -4119 0 -57 28 c-69 34 -128 98 -156 169 -19 51
-20 74 -21 501 l-1 448 31 72 c38 90 47 110 102 228 84 178 190 436 227 549 5
14 20 56 34 94 15 39 28 99 30 135 20 322 16 296 75 466 78 224 96 270 104
273 4 2 7 9 7 16 0 35 135 315 239 496 88 153 134 250 184 385 14 39 29 79 33
90 4 11 8 22 9 25 1 3 4 12 7 20 13 34 50 163 82 285 28 108 42 142 79 198
103 152 173 304 232 509 20 68 49 155 65 193 24 60 81 237 95 297 2 9 8 25 14
36 5 10 26 68 46 128 20 60 66 165 102 234 93 177 146 283 188 375 20 44 45
98 55 120 57 122 90 196 90 200 0 3 9 24 20 48 33 72 135 334 195 502 118 332
296 739 320 732 18 -6 102 -184 124 -264 38 -144 48 -258 56 -668 3 -126 7
-248 10 -270 5 -54 15 -133 20 -170 2 -16 6 -46 9 -66 56 -413 221 -833 441
-1119 51 -66 181 -199 249 -255 27 -22 54 -44 60 -50 14 -12 185 -155 251
-210 27 -22 59 -49 71 -60 12 -11 43 -38 70 -60 27 -22 61 -51 76 -65 14 -14
37 -34 50 -44 13 -11 89 -76 169 -145 80 -69 163 -139 184 -156 21 -16 50 -39
64 -51 38 -30 167 -107 238 -143 172 -86 388 -152 578 -176 28 -3 64 -8 80
-10 17 -2 50 -12 75 -21 45 -17 150 -21 257 -11 30 2 94 -4 150 -14 241 -46
318 -54 400 -42 170 25 427 114 623 214 165 85 227 126 579 394 30 22 264 216
271 225 7 7 140 123 165 143 85 68 187 146 285 217 63 47 117 87 120 90 3 4
48 35 100 70 293 196 500 355 660 507 36 34 92 87 125 118 33 31 80 73 105 94
25 20 50 41 56 46 6 6 28 24 49 40 116 91 162 152 392 520 146 235 561 922
597 990 6 11 32 54 57 95 26 41 91 147 145 235 54 88 129 207 166 264 37 57
68 107 68 112 0 4 4 9 8 11 4 2 19 19 32 38 29 42 122 160 127 160 1 0 -2 -10
-7 -22z m2440 -900 c0 -7 9 -22 21 -34 l21 -23 -21 -13 c-12 -7 -21 -23 -21
-38 0 -46 -19 -94 -55 -139 -20 -25 -38 -56 -42 -70 -5 -24 -54 -96 -102 -150
-26 -30 -26 -37 -2 -85 18 -34 21 -92 6 -115 -2 -4 -7 -43 -11 -87 -4 -48 -13
-89 -24 -104 -57 -85 -119 -229 -134 -314 -5 -30 -21 -46 -43 -46 -19 0 -16
-47 3 -58 13 -7 11 -13 -16 -35 -20 -17 -38 -47 -50 -84 -49 -145 -109 -221
-180 -230 l-43 -6 7 43 c9 55 46 130 91 183 19 22 35 45 36 51 0 6 2 24 3 39
1 16 -4 36 -11 45 -18 24 -16 29 15 40 21 7 37 27 64 83 39 81 91 223 102 279
3 19 9 46 12 60 3 14 7 48 8 75 2 28 6 61 10 75 14 51 142 305 168 331 22 24
25 33 19 61 -4 18 -13 43 -20 56 -6 12 -8 22 -3 22 5 0 29 26 53 58 23 31 45
59 49 62 3 3 20 24 39 48 30 39 51 47 51 20z m388 -4318 l-3 -2905 -23 -43
c-35 -66 -85 -115 -149 -148 l-58 -29 -1247 -3 -1247 -2 3 82 c3 77 19 146 49
208 16 33 27 44 63 63 16 8 38 24 48 36 19 21 19 21 -6 21 l-26 0 58 153 c87
232 109 298 124 377 2 14 12 52 21 85 9 33 22 83 30 110 45 166 208 549 263
618 35 44 176 349 186 402 1 6 7 26 14 45 6 19 13 46 16 60 2 14 9 43 14 65
24 88 42 246 44 384 2 68 -1 87 -14 95 -22 13 -8 50 128 333 87 180 96 211 99
328 3 104 14 136 78 221 79 107 91 150 67 234 -9 31 -5 42 44 130 36 65 54
108 55 135 2 47 27 149 46 185 26 51 46 124 51 193 5 54 13 83 34 117 15 25
57 105 93 178 49 97 68 147 72 186 8 88 39 142 135 236 47 47 116 110 152 140
97 81 115 114 218 395 28 77 60 165 72 195 25 68 27 78 33 165 8 118 25 165
95 270 61 91 87 143 150 295 28 69 59 143 69 165 10 22 47 111 82 198 l64 159
3 -614 c1 -337 1 -1920 0 -3518z m-1228 2062 c20 -9 3 -11 -75 -11 -82 -1
-106 -5 -133 -21 -38 -23 -62 -72 -55 -110 8 -39 11 -55 13 -57 3 -4 5 -12 14
-61 l8 -44 -64 -61 c-74 -72 -117 -136 -152 -227 -13 -36 -35 -90 -49 -120
-32 -73 -46 -137 -52 -238 -6 -96 -39 -180 -98 -250 -34 -41 -36 -47 -33 -99
5 -70 -8 -100 -50 -115 -33 -12 -34 -13 -30 -62 3 -28 7 -87 11 -131 l6 -80
-47 -80 c-27 -44 -51 -82 -54 -85 -10 -9 -120 -192 -120 -200 0 -5 -4 -10 -8
-12 -20 -8 -240 -439 -248 -486 -3 -14 -7 -29 -10 -33 -2 -4 -9 -29 -14 -56
-5 -26 -23 -106 -40 -178 -17 -71 -34 -150 -37 -175 -3 -25 -10 -48 -16 -52
-6 -3 -11 -40 -12 -81 -2 -78 -8 -121 -27 -199 -9 -38 -9 -53 2 -73 12 -23 12
-27 -8 -41 -12 -8 -22 -23 -22 -34 0 -10 -14 -44 -31 -76 -18 -33 -40 -75 -49
-94 -10 -19 -32 -129 -50 -245 -18 -115 -34 -219 -36 -230 -2 -10 -6 -37 -9
-60 -9 -62 -15 -77 -51 -119 -19 -22 -34 -45 -34 -51 0 -7 -16 -11 -41 -11
-65 2 -72 37 -18 95 30 33 30 51 1 51 -9 0 -31 8 -47 19 -25 15 -33 16 -43 5
-16 -17 -15 -22 6 -27 19 -5 -30 -11 -62 -7 -19 2 -86 65 -86 81 0 4 16 31 35
60 66 100 134 255 199 449 90 272 114 360 147 555 30 172 65 275 115 331 73
84 101 135 133 244 12 41 36 109 53 150 58 142 79 212 84 273 5 72 40 149 96
211 36 40 37 40 39 16 1 -29 10 8 40 175 25 140 87 297 140 356 149 161 221
296 225 414 1 39 6 83 13 98 6 16 11 32 11 37 0 4 12 15 26 25 19 12 29 14 39
5 21 -18 37 -3 24 21 -6 12 -13 33 -15 47 -9 50 -24 89 -50 123 l-25 34 23 18
c13 11 40 33 62 50 21 18 42 34 45 37 28 21 52 85 55 147 5 103 43 170 135
237 47 35 51 36 111 29 45 -4 61 -3 56 5 -8 14 97 9 134 -6z"/>
<path d="M12130 3755 c-7 -20 -10 -39 -7 -42 3 -3 10 12 16 33 14 49 7 56 -9
9z"/>
</g>
</svg>
