<svg version="1" xmlns="http://www.w3.org/2000/svg" width="2000" height="2000" viewBox="0 0 1500.000000 1500.000000"><path d="M69 2C52.3 5.5 37.9 13.2 25.7 25.2c-6.8 6.7-14.5 17.7-17.8 25.6-1.1 2.6-2.4 5.6-2.9 6.7-.5 1.1-1.7 4.9-2.7 8.5C.6 72.2.5 102.8.5 748.5c0 371.8.4 678 .8 680.5 5 28.5 26.4 54.4 53.6 64.9 8.4 3.2 10.1 3.7 20.1 5.2 7.3 1 1351.1.8 1354.5-.3 3.1-.9 10.8-3.1 12.2-3.4.7-.1 5-2 9.5-4.2 24.7-12 42.5-35.3 47.3-62.2 1.2-6.3 1.4-116.6 1.2-682.5l-.2-675-2.3-7.5c-4.8-15.5-15-32.4-25.3-41.5-10.7-9.5-25.2-16.9-40.2-20.5C1423.6.1 1412.4.1 750.5.1 104.5.1 77.2.2 69 2zm146.7 54.4c-.3.8-1.1 3.4-1.7 5.8-3.7 14.2-14.7 45.4-20.7 58.8-8.4 18.7-27.5 72-30.4 84.8-1.3 6-1.8 6.4-8.9 9.3-5.7 2.3-6 2.5-5.4 5.2 1.9 8.9.2 17.1-5.5 26.5-5.3 8.5-7.6 15.7-8.5 26.2-.2 1.9-.8 4.7-1.4 6.2-2.1 5-7.8 28.1-7.4 30 .6 2.8-6.1 18.5-10.1 23.5-3.2 4-14.6 14.8-20 18.8l-6 4.6-.1 10.7-.2 10.7-8.3 13.5c-16.1 26.2-16.9 28.4-21.7 59-.3 1.9-1.4 7.3-2.4 12-1.8 8.3-1.9 5-1.9-186.5 0-190.9.1-195.1 2-200.1 3.5-9.3 11.5-16.5 20.9-19 3.3-.9 21.9-1.3 71.4-1.3 57.7-.1 66.7.1 66.3 1.3zm930.1 8.8c-11.5 19.3-26.2 43.3-33 54.1-3.7 5.9-6.8 10.9-6.8 11.1 0 .7-8.3 14.1-10.9 17.6-4.3 5.8-14.3 18.3-18.1 22.3-2.2 2.4-4.7 7.1-6.7 12.4-3.4 9.2-5.3 12.2-5.3 8.6 0-4.2-1.9-3.3-4.4 2.1-1.4 3-2.6 5.7-2.6 6 0 .3-2.8 4.7-6.3 9.8-11 16.3-14 21.3-27 45.3-7.6 14.1-10.8 19.1-15.9 24.6-7.5 8-13.3 10.9-22.1 11-5.3.1-3.5-1.4-23.4 19.5-2.6 2.8-10.9 11.5-18.3 19.3-7.4 7.8-15.2 17-17.3 20.4-4.2 6.6-14.8 21.6-18.2 25.6-11.3 13.5-19.5 22.3-47.2 50.7-7.3 7.5-10.9 12.3-17.9 24.1-4.8 8.2-9.1 14.9-9.6 15.1-.4.2-.8.8-.8 1.4 0 .5-1.2 2.6-2.7 4.6-6.5 8.9-10.8 14.7-11.3 15.2-.3.3-2.5 3-5 6s-5.7 6.8-7.2 8.5c-1.4 1.6-3.6 4.1-4.8 5.5-20.2 23.7-32.3 34.1-40.3 34.5-5.8.3-10.9 1.4-12.7 2.8-4.1 3.2-22.3 31.1-31.5 48.2-11 20.4-24.5 33.4-41 39.5-6.3 2.4-7.1 3-15.3 13-11.2 13.7-15.4 17.6-22.7 21.1-5.7 2.7-10.1 3.8-9.2 2.1.3-.4.8-6.7 1.2-14 .3-7.4.8-14.3 1-15.5.2-1.2.6-5.8.9-10.3.4-4.4.8-9.6 1-11.5.5-3.9 1.7-15.7 2.1-20.9.2-1.9.6-6.2 1-9.5.3-3.3.8-8 1.1-10.5.5-5.3 1.3-12.3 1.9-16.5.2-1.7.7-5 1-7.5.8-7.3 1.5-13.3 2-17.3.3-2 .7-5.6 1-8 .6-4.3 2.3-17.2 3-21.7.2-1.4.6-4.5 1-7 .3-2.5.8-5.6 1-7 .6-3.3 1.7-10.9 2-14 .1-1.4.5-4.3.9-6.5.3-2.2.8-6.3 1.1-9.1.3-2.8.8-6.1 1-7.5.3-1.3.7-5.1 1-8.4.3-3.3.8-7.6 1-9.5.9-7.3 2.4-20.8 3.1-28 .3-4.1.7-8.2.9-9 .1-.8.6-6 1-11.5s.9-11.6 1.1-13.5c.1-1.9.6-7.6.9-12.5.3-5 .8-11 1-13.5 1.4-15.5 2-37.5 2-73.5-.1-39.9-.8-59.9-2.9-76.5-.3-1.9-.8-6.2-1.1-9.5-.3-3.3-.8-7.1-1-8.5-.1-1.4-.6-5-.9-8-1.3-10.5-4.7-30.4-6.7-39.4-1.1-5-2.2-9.8-2.4-10.7-2.8-12.9-12.8-39.5-20.4-54.7-2.8-5.6-5.1-10.4-5.1-10.7 0-.3 118.3-.5 263-.5h262.9l-6.1 10.2zm16.2 545c-.5 1.3-8.2 20.1-17 41.8-8.9 21.7-18 44.2-20.4 50-2.4 5.8-6.7 16.3-9.5 23.5-2.9 7.1-5.7 13.9-6.1 15-.5 1.1-2.1 4.9-3.6 8.5-1.4 3.6-3.2 7.8-3.9 9.5-.7 1.6-2.2 5.2-3.3 8-1.1 2.7-4.1 9.5-6.7 15-7.3 15.6-23.2 54.4-29.5 72-1 2.7-3.2 8.8-5 13.5-1.7 4.7-4.9 13.7-7.1 20-2.2 6.3-4.2 12.2-4.6 13-.3.8-.7 1.7-.8 2-2.1 8.1-6.6 20.5-17.2 47.4-11.9 30.2-28.5 77.6-36.7 104.6-5.2 17.5-23.6 75.8-24.6 78.3-1.8 4.5-15.3 47.2-15.2 48.2.8 7.1.8 18.4 0 22.2-1.1 5.3-6 16-13.7 29.8-5.3 9.5-10 20.7-12.6 30.3-.9 3.1-1.8 6.4-2 7.2-2.2 7.7-2.7 13.6-2.9 36.5l-.2 26-4.3 12.5c-2.4 6.9-4.5 12.7-4.7 12.9-.2.2-1-.1-1.7-.7-1.7-1.4-3.6 4.9-5.3 17.3-1.2 8.6-1.1 16.3.2 20 1.5 4.5 1.8 25.4.4 32-.5 2.7-1.2 7.9-1.4 11.5l-.3 6.5H78.5l-5.7-2.8c-6.9-3.4-12.8-9.8-15.6-16.9-1.9-5.1-2-7.4-2.1-50.1l-.1-44.8 3.1-7.2c3.8-9 4.7-11 10.2-22.8 8.4-17.8 19-43.6 22.7-54.9.5-1.4 2-5.6 3.4-9.4 1.5-3.9 2.8-9.9 3-13.5 2-32.2 1.6-29.6 7.5-46.6 7.8-22.4 9.6-27 10.4-27.3.4-.2.7-.9.7-1.6 0-3.5 13.5-31.5 23.9-49.6 8.8-15.3 13.4-25 18.4-38.5 1.4-3.9 2.9-7.9 3.3-9 .4-1.1.8-2.2.9-2.5.1-.3.4-1.2.7-2 1.3-3.4 5-16.3 8.2-28.5 2.8-10.8 4.2-14.2 7.9-19.8 10.3-15.2 17.3-30.4 23.2-50.9 2-6.8 4.9-15.5 6.5-19.3 2.4-6 8.1-23.7 9.5-29.7.2-.9.8-2.5 1.4-3.6.5-1 2.6-6.8 4.6-12.8 2-6 6.6-16.5 10.2-23.4 9.3-17.7 14.6-28.3 18.8-37.5 2-4.4 4.5-9.8 5.5-12 5.7-12.2 9-19.6 9-20 0-.3.9-2.4 2-4.8 3.3-7.2 13.5-33.4 19.5-50.2 11.8-33.2 29.6-73.9 32-73.2 1.8.6 10.2 18.4 12.4 26.4 3.8 14.4 4.8 25.8 5.6 66.8.3 12.6.7 24.8 1 27 .5 5.4 1.5 13.3 2 17 .2 1.6.6 4.6.9 6.6 5.6 41.3 22.1 83.3 44.1 111.9 5.1 6.6 18.1 19.9 24.9 25.5 2.7 2.2 5.4 4.4 6 5 1.4 1.2 18.5 15.5 25.1 21 2.7 2.2 5.9 4.9 7.1 6 1.2 1.1 4.3 3.8 7 6s6.1 5.1 7.6 6.5c1.4 1.4 3.7 3.4 5 4.4 1.3 1.1 8.9 7.6 16.9 14.5 8 6.9 16.3 13.9 18.4 15.6 2.1 1.6 5 3.9 6.4 5.1 3.8 3 16.7 10.7 23.8 14.3 17.2 8.6 38.8 15.2 57.8 17.6 2.8.3 6.4.8 8 1 1.7.2 5 1.2 7.5 2.1 4.5 1.7 15 2.1 25.7 1.1 3-.2 9.4.4 15 1.4 24.1 4.6 31.8 5.4 40 4.2 17-2.5 42.7-11.4 62.3-21.4 16.5-8.5 22.7-12.6 57.9-39.4 3-2.2 26.4-21.6 27.1-22.5.7-.7 14-12.3 16.5-14.3 8.5-6.8 18.7-14.6 28.5-21.7 6.3-4.7 11.7-8.7 12-9 .3-.4 4.8-3.5 10-7 29.3-19.6 50-35.5 66-50.7 3.6-3.4 9.2-8.7 12.5-11.8 3.3-3.1 8-7.3 10.5-9.4 2.5-2 5-4.1 5.6-4.6.6-.6 2.8-2.4 4.9-4 11.6-9.1 16.2-15.2 39.2-52 14.6-23.5 56.1-92.2 59.7-99 .6-1.1 3.2-5.4 5.7-9.5 2.6-4.1 9.1-14.7 14.5-23.5s12.9-20.7 16.6-26.4c3.7-5.7 6.8-10.7 6.8-11.2 0-.4.4-.9.8-1.1.4-.2 1.9-1.9 3.2-3.8 2.9-4.2 12.2-16 12.7-16 .1 0-.2 1-.7 2.2zm244 90c0 .7.9 2.2 2.1 3.4l2.1 2.3-2.1 1.3c-1.2.7-2.1 2.3-2.1 3.8 0 4.6-1.9 9.4-5.5 13.9-2 2.5-3.8 5.6-4.2 7-.5 2.4-5.4 9.6-10.2 15-2.6 3-2.6 3.7-.2 8.5 1.8 3.4 2.1 9.2.6 11.5-.2.4-.7 4.3-1.1 8.7-.4 4.8-1.3 8.9-2.4 10.4-5.7 8.5-11.9 22.9-13.4 31.4-.5 3-2.1 4.6-4.3 4.6-1.9 0-1.6 4.7.3 5.8 1.3.7 1.1 1.3-1.6 3.5-2 1.7-3.8 4.7-5 8.4-4.9 14.5-10.9 22.1-18 23l-4.3.6.7-4.3c.9-5.5 4.6-13 9.1-18.3 1.9-2.2 3.5-4.5 3.6-5.1 0-.6.2-2.4.3-3.9.1-1.6-.4-3.6-1.1-4.5-1.8-2.4-1.6-2.9 1.5-4 2.1-.7 3.7-2.7 6.4-8.3 3.9-8.1 9.1-22.3 10.2-27.9.3-1.9.9-4.6 1.2-6 .3-1.4.7-4.8.8-7.5.2-2.8.6-6.1 1-7.5 1.4-5.1 14.2-30.5 16.8-33.1 2.2-2.4 2.5-3.3 1.9-6.1-.4-1.8-1.3-4.3-2-5.6-.6-1.2-.8-2.2-.3-2.2s2.9-2.6 5.3-5.8c2.3-3.1 4.5-5.9 4.9-6.2.3-.3 2-2.4 3.9-4.8 3-3.9 5.1-4.7 5.1-2zm38.8 431.8l-.3 290.5-2.3 4.3c-3.5 6.6-8.5 11.5-14.9 14.8l-5.8 2.9-124.7.3-124.7.2.3-8.2c.3-7.7 1.9-14.6 4.9-20.8 1.6-3.3 2.7-4.4 6.3-6.3 1.6-.8 3.8-2.4 4.8-3.6 1.9-2.1 1.9-2.1-.6-2.1h-2.6l5.8-15.3c8.7-23.2 10.9-29.8 12.4-37.7.2-1.4 1.2-5.2 2.1-8.5.9-3.3 2.2-8.3 3-11 4.5-16.6 20.8-54.9 26.3-61.8 3.5-4.4 17.6-34.9 18.6-40.2.1-.6.7-2.6 1.4-4.5.6-1.9 1.3-4.6 1.6-6 .2-1.4.9-4.3 1.4-6.5 2.4-8.8 4.2-24.6 4.4-38.4.2-6.8-.1-8.7-1.4-9.5-2.2-1.3-.8-5 12.8-33.3 8.7-18 9.6-21.1 9.9-32.8.3-10.4 1.4-13.6 7.8-22.1 7.9-10.7 9.1-15 6.7-23.4-.9-3.1-.5-4.2 4.4-13 3.6-6.5 5.4-10.8 5.5-13.5.2-4.7 2.7-14.9 4.6-18.5 2.6-5.1 4.6-12.4 5.1-19.3.5-5.4 1.3-8.3 3.4-11.7 1.5-2.5 5.7-10.5 9.3-17.8 4.9-9.7 6.8-14.7 7.2-18.6.8-8.8 3.9-14.2 13.5-23.6 4.7-4.7 11.6-11 15.2-14 9.7-8.1 11.5-11.4 21.8-39.5 2.8-7.7 6-16.5 7.2-19.5 2.5-6.8 2.7-7.8 3.3-16.5.8-11.8 2.5-16.5 9.5-27 6.1-9.1 8.7-14.3 15-29.5 2.8-6.9 5.9-14.3 6.9-16.5 1-2.2 4.7-11.1 8.2-19.8l6.4-15.9.3 61.4c.1 33.7.1 192 0 351.8zM1322 925.8c2 .9.3 1.1-7.5 1.1-8.2.1-10.6.5-13.3 2.1-3.8 2.3-6.2 7.2-5.5 11 .8 3.9 1.1 5.5 1.3 5.7.3.4.5 1.2 1.4 6.1l.8 4.4-6.4 6.1c-7.4 7.2-11.7 13.6-15.2 22.7-1.3 3.6-3.5 9-4.9 12-3.2 7.3-4.6 13.7-5.2 23.8-.6 9.6-3.9 18-9.8 25-3.4 4.1-3.6 4.7-3.3 9.9.5 7-.8 10-5 11.5-3.3 1.2-3.4 1.3-3 6.2.3 2.8.7 8.7 1.1 13.1l.6 8-4.7 8c-2.7 4.4-5.1 8.2-5.4 8.5-1 .9-12 19.2-12 20 0 .5-.4 1-.8 1.2-2 .8-24 43.9-24.8 48.6-.3 1.4-.7 2.9-1 3.3-.2.4-.9 2.9-1.4 5.6-.5 2.6-2.3 10.6-4 17.8-1.7 7.1-3.4 15-3.7 17.5-.3 2.5-1 4.8-1.6 5.2-.6.3-1.1 4-1.2 8.1-.2 7.8-.8 12.1-2.7 19.9-.9 3.8-.9 5.3.2 7.3 1.2 2.3 1.2 2.7-.8 4.1-1.2.8-2.2 2.3-2.2 3.4 0 1-1.4 4.4-3.1 7.6-1.8 3.3-4 7.5-4.9 9.4-1 1.9-3.2 12.9-5 24.5-1.8 11.5-3.4 21.9-3.6 23-.2 1-.6 3.7-.9 6-.9 6.2-1.5 7.7-5.1 11.9-1.9 2.2-3.4 4.5-3.4 5.1 0 .7-1.6 1.1-4.1 1.1-6.5-.2-7.2-3.7-1.8-9.5 3-3.3 3-5.1.1-5.1-.9 0-3.1-.8-4.7-1.9-2.5-1.5-3.3-1.6-4.3-.5-1.6 1.7-1.5 2.2.6 2.7 1.9.5-3 1.1-6.2.7-1.9-.2-8.6-6.5-8.6-8.1 0-.4 1.6-3.1 3.5-6 6.6-10 13.4-25.5 19.9-44.9 9-27.2 11.4-36 14.7-55.5 3-17.2 6.5-27.5 11.5-33.1 7.3-8.4 10.1-13.5 13.3-24.4 1.2-4.1 3.6-10.9 5.3-15 5.8-14.2 7.9-21.2 8.4-27.3.5-7.2 4-14.9 9.6-21.1 3.6-4 3.7-4 3.9-1.6.1 2.9 1-.8 4-17.5 2.5-14 8.7-29.7 14-35.6 14.9-16.1 22.1-29.6 22.5-41.4.1-3.9.6-8.3 1.3-9.8.6-1.6 1.1-3.2 1.1-3.7 0-.4 1.2-1.5 2.6-2.5 1.9-1.2 2.9-1.4 3.9-.5 2.1 1.8 3.7.3 2.4-2.1-.6-1.2-1.3-3.3-1.5-4.7-.9-5-2.4-8.9-5-12.3l-2.5-3.4 2.3-1.8c1.3-1.1 4-3.3 6.2-5 2.1-1.8 4.2-3.4 4.5-3.7 2.8-2.1 5.2-8.5 5.5-14.7.5-10.3 4.3-17 13.5-23.7 4.7-3.5 5.1-3.6 11.1-2.9 4.5.4 6.1.3 5.6-.5-.8-1.4 9.7-.9 13.4.6z"/><path d="M1213 1124.5c-.7 2-1 3.9-.7 4.2.3.3 1-1.2 1.6-3.3 1.4-4.9.7-5.6-.9-.9z"/></svg>