<?xml version="1.0" standalone="no"?>
<!DOCTYPE svg PUBLIC "-//W3C//DTD SVG 20010904//EN"
 "http://www.w3.org/TR/2001/REC-SVG-20010904/DTD/svg10.dtd">
<svg version="1.0" xmlns="http://www.w3.org/2000/svg"
 width="2000.000000pt" height="2000.000000pt" viewBox="0 0 2000.000000 2000.000000"
 preserveAspectRatio="xMidYMid meet">
<metadata>
Created by potrace 1.11, written by Peter Selinger 2001-2013
</metadata>
<g transform="translate(0.000000,2000.000000) scale(0.100000,-0.100000)"
fill="#000000" stroke="none">
<path d="M16395 18990 c-230 -34 -417 -257 -636 -760 -79 -181 -97 -241 -104
-343 -5 -75 -28 -135 -68 -183 -14 -17 -44 -55 -66 -84 -41 -55 -105 -106
-182 -145 -61 -31 -105 -70 -135 -116 -20 -32 -24 -55 -30 -154 -3 -64 -11
-133 -18 -153 -16 -49 -66 -73 -167 -82 -43 -4 -85 -12 -93 -19 -8 -7 -20 -35
-26 -64 -14 -60 -25 -84 -50 -112 -10 -11 -50 -83 -88 -160 -82 -165 -403
-704 -424 -713 -4 -2 -8 -7 -8 -12 0 -16 -166 -285 -216 -350 -50 -66 -62 -80
-146 -177 -25 -30 -49 -65 -52 -79 -13 -52 -48 -134 -57 -134 -5 0 -8 6 -6 13
1 6 -5 12 -13 12 -14 0 -25 -17 -67 -107 -10 -20 -53 -90 -97 -154 -43 -64
-116 -185 -162 -268 -150 -274 -178 -319 -239 -381 -74 -76 -121 -99 -198 -99
l-58 0 -157 -166 c-86 -90 -199 -208 -251 -262 -51 -53 -120 -139 -153 -189
-145 -225 -213 -304 -631 -733 -57 -59 -117 -132 -143 -176 -25 -41 -50 -84
-57 -95 -7 -10 -30 -49 -52 -85 -21 -36 -43 -66 -47 -68 -4 -2 -8 -9 -8 -14 0
-11 -113 -165 -167 -228 -338 -392 -431 -480 -512 -487 -74 -6 -139 -24 -159
-46 -38 -41 -209 -305 -293 -453 -46 -81 -111 -179 -145 -218 -71 -83 -175
-156 -273 -193 -62 -23 -75 -32 -122 -92 -143 -179 -195 -226 -288 -261 l-51
-20 5 73 c2 39 7 113 10 162 2 50 8 113 11 140 3 28 7 66 9 85 2 19 6 71 9
115 4 44 9 91 11 105 2 14 7 66 11 115 3 50 8 93 11 97 2 4 6 33 8 64 4 59 11
119 25 224 5 36 12 92 15 125 3 33 8 71 11 85 3 14 8 43 10 65 3 39 20 158 30
220 2 17 7 48 9 70 8 60 13 99 15 105 2 3 2 8 2 11 -1 4 3 33 8 65 5 33 12 84
15 114 3 30 8 66 10 80 3 14 9 67 15 118 6 52 12 108 15 125 2 18 6 59 10 92
3 33 7 76 10 95 2 19 6 67 10 105 3 39 10 116 16 173 5 57 12 138 14 180 2 42
7 104 10 137 3 33 8 101 10 150 2 50 7 144 11 210 17 274 4 979 -20 1155 -3
19 -8 64 -11 100 -3 36 -7 76 -9 90 -3 14 -7 48 -10 75 -9 75 -37 267 -42 295
-3 14 -7 35 -9 47 -2 12 -13 65 -25 118 -12 53 -23 102 -24 108 -2 7 -6 19 -9
27 -3 8 -16 49 -27 90 -85 295 -275 653 -473 893 -41 48 -58 62 -77 61 -35 -3
-119 16 -155 33 -16 9 -52 32 -80 53 -69 53 -138 92 -220 125 -63 26 -82 29
-185 29 -63 0 -164 -3 -225 -7 -209 -14 -407 31 -582 134 -62 36 -131 55 -188
52 -47 -2 -92 -10 -104 -17 -7 -5 -21 0 -34 12 -66 60 -218 104 -477 138 -137
18 -434 18 -547 0 -21 -3 -58 -8 -83 -11 -180 -18 -488 -139 -608 -238 -72
-59 -137 -148 -166 -227 -44 -118 -42 -108 -51 -190 -3 -30 -8 -62 -11 -70 -3
-8 -7 -26 -9 -40 -6 -47 -84 -346 -102 -390 -3 -8 -7 -20 -9 -27 -12 -57 -97
-285 -189 -508 -72 -173 -139 -349 -175 -460 -12 -38 -25 -74 -29 -80 -3 -5
-6 -12 -6 -15 0 -3 -21 -71 -45 -153 l-45 -147 -67 -27 c-61 -23 -67 -29 -61
-47 5 -12 8 -52 7 -91 0 -65 -5 -78 -57 -180 -57 -109 -87 -200 -87 -261 0
-17 -7 -51 -15 -75 -19 -53 -55 -185 -60 -219 -13 -94 -61 -243 -83 -260 -4
-3 -20 -25 -37 -48 -33 -50 -133 -145 -204 -193 l-48 -34 0 -105 1 -105 -49
-80 c-27 -44 -51 -82 -54 -85 -3 -3 -15 -23 -26 -44 -11 -22 -25 -44 -30 -50
-11 -11 -75 -147 -95 -201 -7 -16 -14 -46 -16 -65 -2 -19 -7 -46 -10 -60 -4
-14 -8 -39 -9 -56 -2 -17 -6 -46 -11 -65 -4 -19 -8 -41 -9 -49 -1 -8 -7 -40
-14 -70 -6 -30 -13 -64 -15 -75 -14 -73 -53 -191 -82 -247 -9 -17 -33 -49 -55
-73 -36 -38 -55 -76 -177 -345 -11 -25 -39 -88 -62 -140 -23 -52 -65 -144 -93
-204 l-50 -109 -2 -196 c-3 -180 -7 -244 -20 -310 -28 -143 -135 -288 -252
-342 -50 -22 -51 -23 -47 -62 7 -68 -15 -116 -84 -187 -79 -80 -130 -157 -138
-207 -3 -21 -8 -42 -11 -46 -2 -4 -7 -23 -9 -42 -7 -55 -42 -199 -80 -330 -71
-243 -162 -460 -266 -632 -48 -79 -57 -103 -68 -175 -7 -46 -19 -110 -27 -143
-7 -33 -15 -69 -17 -80 -2 -11 -18 -72 -35 -135 -36 -128 -60 -217 -66 -240
-11 -49 -37 -134 -60 -195 -15 -38 -29 -86 -31 -105 -3 -19 -9 -49 -15 -67
-11 -34 -75 -98 -113 -113 l-24 -9 29 -57 c16 -31 29 -65 29 -74 0 -40 -33
-90 -109 -163 -63 -60 -83 -86 -91 -120 -41 -159 -116 -412 -129 -437 -5 -9
-12 -31 -16 -50 -4 -19 -11 -41 -16 -50 -12 -24 -324 -919 -334 -960 -2 -8
-15 -60 -30 -115 -32 -124 -52 -215 -72 -330 -2 -16 -36 -93 -73 -170 -58
-118 -110 -250 -126 -314 -2 -9 -15 -68 -30 -131 -27 -120 -86 -307 -110 -350
-33 -60 -42 -97 -34 -140 4 -24 7 -75 6 -114 -3 -77 -19 -119 -95 -248 -22
-38 -38 -68 -35 -68 2 0 -2 -15 -9 -33 -16 -39 -12 -213 5 -242 3 -6 9 -26 13
-45 17 -79 66 -154 172 -260 86 -85 111 -118 141 -181 36 -75 40 -79 132 -141
52 -35 97 -66 100 -69 3 -3 10 -8 15 -10 6 -2 69 -36 140 -75 138 -76 276
-138 495 -224 174 -68 376 -170 514 -260 60 -39 110 -70 111 -68 2 2 6 21 9
42 10 64 18 89 41 131 39 70 106 89 192 53 15 -6 34 -12 42 -14 29 -6 184 -85
240 -123 l59 -40 0 92 c-1 178 50 266 162 279 22 3 36 25 103 162 83 170 176
320 251 401 52 57 51 54 66 155 6 41 15 86 20 100 4 14 16 59 25 100 10 41 22
81 27 88 6 6 8 12 5 12 -17 0 81 248 188 475 121 257 270 643 281 725 3 24 9
115 20 275 5 69 28 152 79 290 15 39 30 81 35 95 13 42 63 165 69 170 3 3 8
14 9 25 6 31 143 306 228 455 128 225 213 445 295 759 26 98 49 166 64 185 88
116 189 328 245 516 18 58 41 130 52 160 41 115 71 201 134 395 73 221 103
292 198 464 56 101 243 500 296 631 10 25 26 63 36 85 10 22 19 45 20 50 2 9
14 38 67 165 5 14 11 32 13 40 2 8 10 30 18 50 8 19 37 98 65 175 50 144 121
320 173 435 69 151 119 253 122 249 16 -18 79 -148 99 -205 52 -146 62 -224
72 -559 14 -481 12 -453 41 -655 22 -149 21 -146 44 -245 108 -466 298 -827
570 -1081 30 -28 116 -102 190 -164 74 -62 137 -115 140 -119 3 -4 15 -14 27
-22 13 -9 46 -36 75 -61 29 -26 143 -124 253 -219 110 -95 202 -175 205 -178
3 -4 48 -41 100 -83 278 -223 588 -351 949 -393 29 -4 81 -15 115 -26 37 -12
85 -19 121 -18 189 5 256 2 355 -19 255 -53 360 -45 640 53 58 20 114 39 125
43 47 14 287 138 365 189 125 81 421 302 515 384 74 65 252 218 299 257 66 56
455 349 522 393 321 213 535 381 754 593 58 56 164 150 236 208 l131 107 114
173 c151 232 642 1034 783 1280 33 59 220 363 225 368 3 3 15 21 25 40 65 116
290 439 300 429 6 -6 -66 -183 -78 -191 -6 -4 -8 -8 -4 -8 8 0 -39 -119 -54
-137 -6 -7 -8 -13 -4 -13 3 0 -6 -26 -20 -57 -14 -32 -35 -83 -46 -113 -11
-30 -24 -59 -28 -65 -4 -5 -11 -21 -15 -35 -4 -14 -16 -44 -26 -68 -10 -23
-19 -46 -20 -50 0 -4 -6 -16 -12 -27 -6 -11 -12 -24 -13 -30 -3 -11 -70 -175
-99 -240 -10 -22 -19 -44 -20 -50 -6 -25 -220 -534 -278 -660 -35 -77 -99
-228 -141 -335 -43 -107 -81 -204 -86 -215 -10 -23 -77 -202 -97 -260 -7 -22
-16 -47 -20 -55 -3 -8 -7 -19 -9 -25 -35 -113 -191 -547 -247 -691 -85 -217
-181 -475 -238 -644 -22 -63 -42 -122 -46 -130 -3 -8 -7 -22 -9 -31 -2 -9 -9
-29 -15 -45 -7 -16 -13 -33 -14 -39 -10 -41 -108 -354 -115 -367 -6 -10 -10
-23 -10 -30 0 -7 -25 -91 -56 -188 -141 -442 -200 -624 -240 -744 -38 -112
-44 -137 -38 -180 18 -139 -6 -244 -87 -381 -52 -89 -104 -191 -130 -258 -26
-64 -75 -230 -83 -277 -3 -19 -8 -48 -11 -65 -3 -16 -5 -61 -4 -100 5 -334 1
-383 -47 -530 -20 -60 -38 -112 -40 -114 -2 -2 -10 1 -18 8 -11 9 -15 6 -21
-16 -5 -16 -10 -35 -12 -43 -26 -92 -38 -264 -22 -320 14 -53 21 -277 9 -300
-14 -27 -21 -139 -22 -352 -1 -144 -5 -221 -16 -265 -15 -62 -15 -63 10 -100
60 -91 137 -137 221 -135 39 1 87 50 87 88 0 39 34 96 94 158 31 31 59 70 63
87 7 24 22 38 70 64 l61 33 152 -88 c84 -49 167 -104 185 -124 32 -35 32 -38
33 -128 0 -51 3 -120 7 -153 3 -33 8 -82 10 -108 6 -73 91 -194 141 -201 21
-3 23 -17 27 -139 l2 -69 26 32 27 31 10 -29 c10 -28 64 -77 74 -66 3 2 11 -2
18 -11 18 -22 27 -19 45 18 30 64 87 107 97 75 2 -6 11 -9 20 -5 11 4 22 32
32 84 21 98 44 147 73 151 26 4 34 22 39 92 5 65 34 241 42 255 3 5 7 21 8 35
2 14 6 41 10 60 4 19 6 47 5 62 -2 17 11 50 33 87 32 53 40 59 69 59 18 0 51
5 73 11 30 8 50 8 74 -1 30 -10 35 -9 52 15 38 52 56 72 62 67 12 -12 19 -169
12 -285 -1 -27 6 -52 20 -76 26 -42 48 -115 39 -129 -4 -6 -27 -8 -52 -6 -48
5 -76 -4 -105 -35 -22 -22 -23 -33 -4 -26 21 8 46 -25 41 -54 -3 -13 -8 -50
-12 -81 -7 -69 5 -88 54 -88 19 0 48 -8 64 -17 38 -23 41 -19 63 105 25 134
40 148 231 216 109 39 180 78 195 107 6 11 13 92 14 182 4 179 11 208 73 308
33 54 37 67 38 137 3 140 49 255 118 295 24 14 49 33 57 41 11 14 9 16 -14 16
-14 0 -26 2 -26 5 0 3 36 101 79 217 43 117 93 272 110 343 29 123 74 273 102
340 7 17 13 32 14 35 14 60 116 277 197 421 187 332 257 577 261 910 1 76 -2
121 -10 130 -13 17 25 116 128 327 67 139 81 169 85 192 11 58 14 84 15 150 2
84 18 127 77 205 78 103 87 134 68 232 -7 39 -4 49 42 130 34 60 52 104 56
138 9 79 15 102 50 194 37 94 43 117 51 206 3 34 13 71 24 85 10 14 37 63 60
110 23 47 47 92 52 100 5 8 16 31 24 50 9 19 19 42 23 50 5 8 9 33 10 55 1 22
10 63 20 90 17 51 87 127 284 310 84 78 110 123 163 274 18 53 39 110 46 126
7 17 13 35 15 40 1 6 18 51 37 100 20 50 38 119 42 155 4 36 8 81 10 101 6 51
34 129 59 164 62 84 122 203 206 406 51 123 105 253 120 289 43 99 84 205 119
310 18 52 35 102 38 110 3 8 7 20 9 27 3 15 24 83 31 103 3 8 7 20 9 25 1 6
18 73 38 150 20 77 38 151 41 165 3 14 12 52 20 85 8 33 16 71 19 85 2 14 27
117 56 230 28 113 53 212 55 222 10 46 87 334 93 343 4 5 7 15 8 20 1 6 24 73
52 150 69 193 145 431 177 550 15 55 30 105 33 110 4 6 8 18 9 29 4 20 116
440 133 496 6 19 13 46 16 60 3 14 9 39 15 55 5 17 29 104 54 195 24 91 58
212 75 270 17 58 32 112 34 120 20 77 35 127 83 270 30 91 96 266 145 389 73
183 140 372 162 461 3 8 23 83 46 165 52 189 140 539 146 584 2 19 7 38 10 43
3 5 7 21 9 36 2 15 11 59 19 98 21 98 36 197 42 269 2 33 7 85 11 115 14 116
6 696 -11 795 -2 11 -7 61 -11 110 -4 50 -9 99 -11 110 -3 11 -7 47 -9 79 -3
34 -13 72 -25 90 -40 64 -58 103 -70 156 -36 153 -151 426 -228 539 -45 65
-154 173 -217 214 -42 27 -136 65 -185 74 -98 17 -315 77 -335 93 -5 4 -23 10
-39 14 -42 10 -168 75 -256 131 -89 57 -129 75 -168 75 -31 0 -85 43 -232 189
-74 73 -156 127 -205 137 -15 3 -194 53 -247 70 -53 16 -70 12 -93 -22 -16
-24 -43 -31 -60 -15 -17 15 -167 68 -257 90 -95 23 -225 32 -303 21z m852
-8967 c15 -12 15 -14 1 -30 -9 -10 -19 -37 -23 -61 -8 -52 -19 -74 -62 -128
-18 -22 -34 -52 -37 -66 -2 -15 -32 -61 -65 -103 -34 -42 -61 -79 -61 -82 0
-3 9 -21 21 -39 20 -34 21 -77 3 -169 -4 -16 -6 -48 -7 -69 0 -28 -13 -61 -44
-113 -53 -90 -87 -170 -103 -244 -10 -45 -19 -60 -42 -73 -29 -18 -31 -41 -7
-72 5 -7 -2 -18 -20 -32 -16 -11 -32 -33 -36 -49 -14 -58 -84 -189 -117 -221
-20 -19 -50 -35 -70 -38 l-36 -6 9 46 c11 59 41 119 89 177 32 38 39 54 38 88
0 23 -4 44 -9 47 -17 10 -9 32 14 38 59 14 182 354 192 531 3 50 15 82 73 200
39 77 82 154 96 170 30 34 32 52 12 99 l-14 33 87 110 c76 97 87 108 94 89 4
-12 15 -27 24 -33z m-879 -2222 c8 -5 -16 -8 -58 -8 -43 0 -66 3 -58 8 17 11
99 11 116 0z m-163 -10 c-30 -13 -75 -61 -82 -89 -3 -13 0 -50 7 -81 8 -31 15
-60 16 -66 1 -5 5 -22 9 -37 4 -17 3 -28 -3 -28 -17 0 -113 -102 -152 -161
-20 -31 -44 -78 -53 -105 -10 -27 -29 -71 -42 -99 -33 -70 -56 -155 -60 -228
-2 -34 -4 -62 -5 -62 -1 0 -3 -17 -5 -37 -6 -52 -38 -122 -84 -182 -29 -37
-40 -62 -42 -93 -2 -23 0 -45 3 -48 15 -16 -10 -60 -46 -78 l-38 -20 6 -86 c4
-47 8 -102 10 -121 6 -48 -4 -68 -144 -290 -138 -219 -322 -576 -340 -660 -6
-30 -14 -62 -17 -70 -3 -8 -7 -24 -9 -35 -1 -11 -16 -78 -33 -148 -17 -71 -31
-138 -31 -150 0 -12 -7 -35 -15 -50 -8 -16 -15 -60 -16 -105 -1 -42 -8 -104
-16 -137 -20 -88 -21 -98 -9 -124 8 -19 7 -26 -9 -37 -11 -8 -20 -20 -21 -27
0 -7 -2 -19 -2 -28 -1 -8 -19 -44 -41 -80 -42 -70 -58 -113 -65 -174 -14 -119
-77 -489 -87 -508 -7 -12 -19 -28 -26 -36 -8 -7 -21 -24 -30 -37 -11 -18 -25
-24 -49 -24 -56 0 -55 40 4 102 l25 27 -29 11 c-16 6 -31 11 -34 11 -3 0 -16
7 -28 15 -22 14 -25 14 -43 -2 -12 -11 -16 -20 -9 -24 6 -4 -4 -7 -23 -8 -28
-1 -41 6 -71 38 l-36 39 35 53 c68 102 184 362 209 468 2 8 20 65 39 125 42
130 77 257 82 294 7 47 39 229 51 286 10 49 59 137 109 198 53 65 91 146 125
262 12 44 38 114 56 155 41 95 63 171 67 236 5 59 32 120 81 182 31 38 36 41
45 25 6 -10 11 -13 11 -8 1 30 61 308 75 350 32 93 73 162 155 256 109 126
168 249 171 360 3 106 40 176 78 152 25 -15 52 10 33 29 -7 7 -12 21 -12 32 0
37 -20 93 -45 130 -14 20 -25 39 -25 41 0 2 29 26 64 55 82 65 111 109 112
176 2 96 22 143 96 217 67 66 69 67 120 66 38 0 47 -3 33 -8z"/>
<path d="M15296 5804 c-4 -14 -5 -29 -2 -31 3 -3 8 7 12 21 3 15 4 29 1 32 -2
3 -8 -7 -11 -22z"/>
</g>
</svg>
