<?xml version="1.0" standalone="no"?>
<!DOCTYPE svg PUBLIC "-//W3C//DTD SVG 20010904//EN"
 "http://www.w3.org/TR/2001/REC-SVG-20010904/DTD/svg10.dtd">
<svg version="1.0" xmlns="http://www.w3.org/2000/svg"
 width="2000.000000pt" height="2000.000000pt" viewBox="0 0 2000.000000 2000.000000"
 preserveAspectRatio="xMidYMid meet">
<metadata>
Created by potrace 1.11, written by Peter Selinger 2001-2013
</metadata>
<g transform="translate(0.000000,2000.000000) scale(0.100000,-0.100000)"
fill="#000000" stroke="none">
<path d="M16415 18994 c-168 -26 -292 -121 -428 -330 -92 -141 -233 -427 -304
-619 -8 -22 -18 -81 -23 -132 -12 -114 -24 -144 -105 -254 -71 -94 -98 -118
-190 -169 -85 -47 -142 -96 -164 -139 -14 -27 -22 -75 -29 -175 -8 -107 -15
-142 -28 -157 -23 -26 -105 -49 -171 -49 -39 0 -58 -5 -72 -19 -18 -18 -41
-78 -41 -107 0 -7 -15 -34 -34 -62 -19 -27 -66 -112 -104 -188 -69 -139 -167
-305 -394 -674 -67 -107 -144 -232 -172 -278 -28 -45 -99 -140 -157 -210 -87
-105 -110 -139 -128 -193 -12 -36 -28 -75 -36 -85 -14 -18 -14 -18 -15 4 0 12
-4 22 -9 22 -13 0 -27 -20 -53 -80 -13 -30 -64 -116 -113 -191 -50 -74 -125
-200 -169 -280 -137 -250 -169 -301 -236 -369 -73 -75 -141 -107 -210 -97
l-38 5 -247 -260 c-190 -199 -265 -285 -322 -371 -145 -216 -206 -287 -517
-612 -208 -216 -214 -223 -314 -390 -122 -201 -186 -289 -358 -490 -242 -282
-359 -385 -439 -385 -62 0 -116 -19 -147 -52 -43 -46 -187 -267 -279 -428 -45
-80 -101 -170 -125 -200 -79 -104 -175 -177 -297 -226 -76 -31 -80 -34 -175
-150 -53 -64 -113 -130 -133 -146 -34 -28 -149 -81 -157 -73 -6 5 15 276 44
585 33 353 75 700 134 1125 140 994 203 1866 180 2485 -26 734 -113 1251 -277
1650 -86 210 -241 473 -374 636 l-58 72 -64 6 c-74 8 -140 37 -217 96 -30 23
-96 62 -145 86 -124 62 -191 71 -385 55 -167 -15 -260 -10 -395 21 -114 26
-165 46 -266 105 -72 42 -88 47 -157 51 -42 2 -95 -1 -117 -7 -34 -9 -42 -8
-60 9 -108 102 -590 173 -955 141 -330 -29 -624 -134 -779 -277 -115 -107
-166 -210 -196 -401 -20 -121 -81 -366 -134 -534 -43 -137 -98 -281 -219 -579
-84 -205 -177 -468 -232 -657 l-33 -112 -69 -27 c-54 -22 -67 -31 -62 -43 4
-9 9 -40 12 -68 5 -62 -14 -128 -59 -205 -44 -74 -76 -162 -84 -233 -4 -33
-17 -94 -30 -135 -13 -41 -37 -139 -53 -218 -22 -98 -41 -161 -63 -203 -40
-75 -137 -181 -232 -252 l-72 -54 0 -104 -1 -104 -87 -144 c-152 -249 -165
-282 -207 -528 -54 -318 -106 -475 -185 -556 -26 -27 -67 -107 -156 -304 -67
-148 -130 -290 -140 -316 -10 -26 -26 -58 -34 -70 -40 -61 -47 -108 -50 -322
-3 -233 -14 -305 -65 -413 -37 -80 -144 -190 -211 -217 -45 -19 -46 -20 -42
-55 10 -69 -13 -116 -98 -206 -97 -103 -115 -138 -139 -266 -68 -356 -226
-786 -368 -1004 -28 -43 -42 -77 -47 -115 -20 -151 -141 -636 -195 -784 -17
-44 -37 -111 -46 -150 -20 -90 -41 -123 -102 -160 l-50 -30 19 -27 c30 -42 42
-85 34 -125 -5 -28 -28 -59 -99 -132 -75 -78 -94 -104 -100 -136 -19 -98 -114
-406 -217 -695 -250 -710 -311 -904 -359 -1155 -18 -93 -32 -132 -90 -250 -75
-152 -115 -268 -155 -443 -32 -143 -67 -254 -115 -365 -33 -75 -37 -92 -29
-125 25 -106 0 -224 -70 -332 -22 -34 -48 -85 -57 -113 -34 -102 -11 -284 51
-407 17 -33 66 -92 130 -156 85 -84 110 -117 142 -182 36 -76 42 -81 128 -140
208 -140 413 -245 695 -357 230 -91 450 -200 585 -290 53 -36 98 -65 100 -65
1 0 6 25 10 55 10 81 51 156 100 179 38 19 42 19 105 3 72 -19 247 -100 315
-147 24 -16 45 -30 48 -30 2 0 4 39 4 88 -1 158 47 254 134 268 21 4 45 12 53
18 7 6 32 53 55 103 82 184 178 342 276 451 47 52 48 54 71 181 42 227 105
414 242 711 106 232 153 343 223 531 73 197 76 208 89 411 10 159 13 174 59
310 96 286 218 562 334 760 149 253 249 505 332 833 29 114 40 142 88 215 110
170 168 299 231 515 19 66 47 149 62 185 14 36 41 115 59 175 71 238 122 365
236 590 206 406 355 748 504 1160 108 297 193 503 281 677 l36 71 19 -31 c75
-124 126 -285 144 -452 3 -30 10 -208 15 -395 11 -410 31 -589 100 -865 77
-308 209 -597 367 -803 88 -114 186 -208 433 -416 135 -113 358 -302 495 -421
138 -119 277 -236 310 -262 227 -172 515 -288 839 -338 67 -10 146 -26 176
-34 44 -14 80 -16 180 -11 113 6 141 4 288 -24 212 -40 294 -40 444 -2 237 62
467 158 655 275 169 104 517 374 738 571 160 142 406 329 705 535 315 217 454
328 670 535 69 66 179 163 244 215 112 90 123 102 210 235 169 255 298 464
684 1110 277 462 423 698 533 860 100 146 165 226 150 185 -35 -96 -663 -1614
-716 -1728 -122 -266 -411 -1024 -486 -1272 -12 -41 -64 -181 -115 -310 -179
-455 -274 -731 -498 -1450 -52 -168 -138 -438 -191 -600 l-97 -295 -2 -135
c-2 -158 -8 -179 -111 -360 -80 -141 -114 -223 -162 -382 l-36 -123 -2 -240
c-2 -275 -4 -291 -52 -440 -43 -131 -41 -129 -58 -115 -17 14 -31 -26 -50
-145 -19 -114 -19 -162 0 -250 18 -84 20 -242 3 -282 -7 -17 -14 -136 -18
-313 -5 -201 -10 -293 -20 -312 -18 -38 -7 -69 50 -131 35 -39 64 -60 97 -71
100 -34 154 -11 172 75 13 57 50 116 111 172 23 21 43 51 47 68 4 23 18 37 68
65 l63 35 149 -87 c81 -48 165 -104 186 -125 l37 -38 0 -113 c1 -62 6 -156 13
-209 12 -84 17 -102 49 -145 44 -60 67 -81 93 -86 17 -3 21 -14 27 -78 4 -41
5 -88 2 -105 l-5 -30 29 32 28 33 17 -36 c11 -22 29 -40 51 -49 19 -8 37 -19
41 -25 11 -17 25 -11 35 16 16 42 61 94 81 94 11 0 19 -4 19 -10 0 -5 7 -10
15 -10 19 0 28 24 45 111 14 78 42 129 69 129 25 0 30 16 41 124 5 50 21 147
35 214 15 68 25 138 23 156 -3 24 6 48 33 92 35 59 36 59 95 67 82 12 105 13
134 5 22 -6 30 0 60 42 23 32 38 45 45 39 6 -6 11 -78 12 -166 1 -148 3 -159
28 -209 15 -29 28 -68 28 -86 2 -33 1 -33 -43 -34 -71 -1 -79 -3 -97 -24 -10
-11 -24 -20 -31 -20 -12 0 -12 -3 -2 -15 11 -13 15 -13 22 -3 15 23 40 -22 33
-57 -3 -16 -9 -54 -12 -82 -7 -64 6 -83 54 -83 19 0 48 -8 64 -17 15 -9 31
-14 35 -11 3 4 15 53 26 110 14 72 26 110 41 126 28 31 91 62 199 101 108 37
136 52 170 85 25 26 26 29 30 199 4 187 2 181 85 331 22 40 27 63 28 125 1 54
10 100 29 158 28 84 30 87 118 148 43 30 43 30 16 33 -16 2 -28 5 -28 7 0 2
35 100 79 217 43 117 86 249 96 293 59 270 186 605 312 820 171 293 251 544
275 866 10 138 9 159 -5 188 -16 32 -15 34 35 149 28 64 73 162 101 217 71
142 78 167 86 296 8 126 8 129 108 269 l46 65 -6 86 -6 87 48 81 c40 67 49 93
55 148 4 38 24 111 46 171 24 64 44 138 51 191 9 67 19 98 44 141 78 130 145
280 154 343 5 34 16 80 25 100 19 46 108 141 236 252 116 101 144 145 214 341
29 82 69 190 89 239 27 68 38 116 46 197 12 125 26 165 98 276 68 107 82 133
160 321 271 651 316 785 433 1281 124 533 208 841 284 1058 105 295 168 502
296 977 285 1054 322 1174 485 1585 129 327 242 713 350 1200 65 293 81 407
97 665 8 149 8 251 0 423 -16 313 -48 608 -70 648 -46 86 -63 127 -87 214 -32
116 -116 320 -176 426 -59 106 -210 260 -293 298 -33 16 -130 45 -216 67 -249
61 -408 124 -553 219 -91 59 -138 80 -179 80 -31 0 -56 20 -233 191 -112 108
-127 115 -345 175 -69 19 -132 37 -141 40 -17 5 -37 -10 -63 -47 -14 -20 -14
-20 -52 -1 -59 30 -210 81 -286 97 -74 16 -207 26 -253 19z m828 -8961 c19
-21 19 -24 4 -41 -10 -10 -17 -29 -17 -43 -1 -39 -24 -91 -62 -141 -19 -25
-39 -59 -42 -74 -4 -16 -31 -58 -60 -94 -72 -89 -70 -86 -45 -127 22 -34 22
-40 11 -118 -7 -44 -12 -99 -12 -121 0 -25 -9 -52 -24 -75 -45 -66 -95 -174
-119 -258 -20 -68 -29 -87 -51 -98 -30 -15 -32 -29 -11 -59 13 -19 12 -23 -15
-43 -17 -12 -30 -26 -30 -32 0 -21 -53 -145 -82 -191 -33 -52 -82 -88 -120
-88 -25 0 -25 1 -17 47 12 63 42 122 89 176 33 37 40 53 40 85 0 23 -4 44 -10
47 -18 11 -10 35 14 41 18 4 34 28 69 102 71 154 115 307 121 424 2 48 15 83
76 208 41 83 84 160 97 172 26 25 28 38 8 92 -10 30 -11 42 -2 51 7 6 46 55
87 108 41 54 77 92 79 85 2 -7 13 -23 24 -35z m-863 -2233 c17 -5 -2 -8 -60
-9 -58 0 -80 2 -70 9 18 11 94 11 130 0z m-170 -11 c-38 -15 -78 -58 -85 -91
-4 -17 2 -62 15 -111 l22 -83 -79 -79 c-79 -80 -105 -122 -159 -255 -59 -145
-73 -197 -82 -301 -10 -117 -37 -191 -97 -264 -31 -38 -34 -49 -37 -116 l-3
-74 -37 -20 c-35 -19 -38 -23 -38 -65 0 -25 5 -75 10 -112 8 -52 7 -77 -3
-105 -7 -21 -70 -129 -140 -240 -69 -111 -171 -291 -225 -400 l-99 -198 -52
-222 c-28 -122 -51 -232 -51 -245 0 -13 -6 -32 -14 -43 -8 -12 -15 -62 -19
-125 -3 -58 -13 -128 -21 -157 -13 -42 -14 -56 -4 -78 10 -23 10 -29 -5 -40
-9 -7 -17 -19 -17 -28 0 -9 -22 -58 -50 -110 l-49 -95 -46 -287 -45 -287 -42
-54 c-38 -48 -47 -54 -80 -54 -33 0 -38 3 -38 23 0 24 25 67 47 80 17 10 17
37 0 37 -7 0 -31 9 -52 20 -23 12 -41 16 -43 10 -2 -5 -10 -10 -18 -10 -17 0
-19 -17 -1 -23 6 -3 -4 -6 -23 -6 -29 -1 -43 7 -74 38 l-37 38 40 62 c73 113
132 250 207 477 90 271 107 338 138 524 34 199 58 263 140 364 59 71 79 113
115 236 17 56 46 137 65 179 45 101 54 132 66 223 11 89 32 136 91 204 40 47
42 48 37 19 -3 -17 -17 -66 -31 -109 -16 -48 -20 -74 -12 -65 17 18 37 94 75
284 17 83 38 174 46 204 27 95 83 191 169 290 103 119 165 250 165 347 0 104
34 169 81 159 30 -7 47 8 31 28 -5 7 -12 33 -16 58 -4 26 -20 67 -36 93 -17
26 -30 48 -30 51 0 2 27 25 59 50 83 65 114 115 117 187 4 105 38 172 123 240
41 33 52 37 101 37 47 0 51 -2 30 -10z"/>
</g>
</svg>
